<?xml version="1.0" encoding="utf-8"?>
<!-- Generator: Adobe Illustrator 15.1.0, SVG Export Plug-In . SVG Version: 6.00 Build 0)  -->
<!DOCTYPE svg PUBLIC "-//W3C//DTD SVG 1.1//EN" "http://www.w3.org/Graphics/SVG/1.1/DTD/svg11.dtd">
<svg version="1.1" id="Layer_1" xmlns="http://www.w3.org/2000/svg" xmlns:xlink="http://www.w3.org/1999/xlink" x="0px" y="0px"
	 width="566.929px" height="595.275px" viewBox="0 0 566.929 595.275" enable-background="new 0 0 566.929 595.275"
	 xml:space="preserve">
<path fill="#B6A800" d="M248.497,473.518c0,0-83.908-47.971-158.854,74.417c0,0,68.689,52.522,125.546,16.369
	C272.045,528.149,248.497,473.518,248.497,473.518L248.497,473.518z"/>
<path fill="#FFFFFF" d="M247.1,448.743c0,0-57.344,87.958-133.744,87.488c0,0,79.383,8.232,148.985-67.507L247.1,448.743
	L247.1,448.743z"/>
<path fill="#0094DA" d="M283.519,328.021c0,43.846,35.542,79.384,79.387,79.384s79.387-35.538,79.387-79.384
	c0-43.84-35.542-79.382-79.387-79.382S283.519,284.181,283.519,328.021L283.519,328.021z M200.594,328.021
	c0-89.636,72.668-162.303,162.312-162.303c89.645,0,162.312,72.667,162.312,162.303c0,89.641-72.667,162.304-162.312,162.304
	C273.262,490.325,200.594,417.662,200.594,328.021L200.594,328.021z"/>
<g>
	<defs>
		<path id="SVGID_1_" d="M283.519,328.021c0,43.846,35.542,79.384,79.387,79.384s79.387-35.538,79.387-79.384
			c0-43.84-35.542-79.382-79.387-79.382S283.519,284.181,283.519,328.021L283.519,328.021z M200.594,328.021
			c0-89.636,72.668-162.303,162.312-162.303c89.645,0,162.312,72.667,162.312,162.303c0,89.641-72.667,162.304-162.312,162.304
			C273.262,490.325,200.594,417.662,200.594,328.021L200.594,328.021z"/>
	</defs>
	<clipPath id="SVGID_2_">
		<use xlink:href="#SVGID_1_"  overflow="visible"/>
	</clipPath>
	<polygon clip-path="url(#SVGID_2_)" fill="#FFFFFF" points="228.188,287.233 265.496,287.233 265.496,293.957 250.202,293.957 
		250.202,313.516 243.588,313.516 243.588,294.028 228.188,294.028 228.188,287.233 	"/>
	<path clip-path="url(#SVGID_2_)" fill="#FFFFFF" d="M305.565,287.198v6.759H277.15c-0.713,0-1.157,0.226-1.334,0.676
		s-0.269,0.959-0.269,1.527v0.854h30.019v6.794h-29.983v0.604c0,0.64,0.091,1.173,0.269,1.6c0.177,0.426,0.61,0.64,1.299,0.64
		h28.416v6.865H277.15c-1.259,0-2.402-0.197-3.435-0.588c-1.029-0.391-1.919-0.955-2.666-1.689
		c-0.746-0.734-1.322-1.619-1.725-2.649c-0.403-1.03-0.605-2.176-0.605-3.432v-9.53c0-1.161,0.213-2.259,0.641-3.289
		c0.427-1.03,1.02-1.923,1.778-2.669c0.759-0.746,1.648-1.339,2.668-1.777c1.019-0.438,2.132-0.659,3.344-0.659L305.565,287.198
		L305.565,287.198z"/>
	<path clip-path="url(#SVGID_2_)" fill="#FFFFFF" d="M345.5,287.198v6.759h-28.418c-0.711,0-1.152,0.226-1.332,0.676
		c-0.178,0.45-0.267,0.959-0.267,1.527v0.854H345.5v6.794h-29.981v0.604c0,0.64,0.089,1.173,0.267,1.6
		c0.18,0.426,0.61,0.64,1.297,0.64H345.5v6.865h-28.418c-1.255,0-2.4-0.197-3.431-0.588s-1.919-0.955-2.667-1.689
		c-0.746-0.734-1.321-1.619-1.724-2.649c-0.404-1.03-0.606-2.176-0.606-3.432v-9.53c0-1.161,0.216-2.259,0.642-3.289
		c0.427-1.03,1.02-1.923,1.777-2.669s1.648-1.339,2.667-1.777c1.021-0.438,2.134-0.659,3.342-0.659L345.5,287.198L345.5,287.198z"/>
</g>
<path fill="#B6A800" d="M130.063,293.799c0,43.844,35.541,79.382,79.387,79.382c43.844,0,79.386-35.538,79.386-79.382
	c0-43.841-35.542-79.383-79.386-79.383C165.604,214.416,130.063,249.958,130.063,293.799L130.063,293.799z M47.138,293.799
	c0-89.637,72.668-162.304,162.313-162.304c89.643,0,162.31,72.667,162.31,162.304c0,89.64-72.667,162.303-162.31,162.303
	C119.806,456.103,47.138,383.439,47.138,293.799L47.138,293.799z"/>
<g>
	<defs>
		<path id="SVGID_3_" d="M130.063,293.799c0,43.844,35.541,79.382,79.387,79.382c43.844,0,79.386-35.538,79.386-79.382
			c0-43.841-35.542-79.383-79.386-79.383C165.604,214.416,130.063,249.958,130.063,293.799L130.063,293.799z M47.138,293.799
			c0-89.637,72.668-162.304,162.313-162.304c89.643,0,162.31,72.667,162.31,162.304c0,89.64-72.667,162.303-162.31,162.303
			C119.806,456.103,47.138,383.439,47.138,293.799L47.138,293.799z"/>
	</defs>
	<clipPath id="SVGID_4_">
		<use xlink:href="#SVGID_3_"  overflow="visible"/>
	</clipPath>
	<path clip-path="url(#SVGID_4_)" fill="#0094DA" d="M283.519,328.021c0,43.846,35.542,79.384,79.387,79.384
		s79.387-35.538,79.387-79.384c0-43.84-35.542-79.382-79.387-79.382S283.519,284.181,283.519,328.021L283.519,328.021z
		 M200.594,328.021c0-89.636,72.668-162.303,162.312-162.303c89.645,0,162.312,72.667,162.312,162.303
		c0,89.641-72.667,162.304-162.312,162.304C273.262,490.325,200.594,417.662,200.594,328.021L200.594,328.021z"/>
	<path clip-path="url(#SVGID_4_)" fill="#B6A800" d="M195.876,211.159c0-57.048,46.247-103.293,103.296-103.293
		c57.052,0,103.298,46.246,103.298,103.293s-46.246,103.29-103.298,103.29C242.123,314.448,195.876,268.207,195.876,211.159
		L195.876,211.159z"/>
	<polygon clip-path="url(#SVGID_4_)" fill="#FFFFFF" points="228.188,287.233 265.496,287.233 265.496,293.957 250.202,293.957 
		250.202,313.516 243.588,313.516 243.588,294.028 228.188,294.028 228.188,287.233 	"/>
	<path clip-path="url(#SVGID_4_)" fill="#FFFFFF" d="M305.565,287.198v6.759H277.15c-0.713,0-1.157,0.226-1.334,0.676
		s-0.269,0.959-0.269,1.527v0.854h30.019v6.794h-29.983v0.604c0,0.64,0.091,1.173,0.269,1.6c0.177,0.426,0.61,0.64,1.299,0.64
		h28.416v6.865H277.15c-1.259,0-2.402-0.197-3.435-0.588c-1.029-0.391-1.919-0.955-2.666-1.689
		c-0.746-0.734-1.322-1.619-1.725-2.649c-0.403-1.03-0.605-2.176-0.605-3.432v-9.53c0-1.161,0.213-2.259,0.641-3.289
		c0.427-1.03,1.02-1.923,1.778-2.669c0.759-0.746,1.648-1.339,2.668-1.777c1.019-0.438,2.132-0.659,3.344-0.659L305.565,287.198
		L305.565,287.198z"/>
	<path clip-path="url(#SVGID_4_)" fill="#FFFFFF" d="M345.5,287.198v6.759h-28.418c-0.711,0-1.152,0.226-1.332,0.676
		c-0.178,0.45-0.267,0.959-0.267,1.527v0.854H345.5v6.794h-29.981v0.604c0,0.64,0.089,1.173,0.267,1.6
		c0.18,0.426,0.61,0.64,1.297,0.64H345.5v6.865h-28.418c-1.255,0-2.4-0.197-3.431-0.588s-1.919-0.955-2.667-1.689
		c-0.746-0.734-1.321-1.619-1.724-2.649c-0.404-1.03-0.606-2.176-0.606-3.432v-9.53c0-1.161,0.216-2.259,0.642-3.289
		c0.427-1.03,1.02-1.923,1.777-2.669s1.648-1.339,2.667-1.777c1.021-0.438,2.134-0.659,3.342-0.659L345.5,287.198L345.5,287.198z"/>
</g>
<path fill="#B6A800" d="M316.309,140.932c0,0-27.148-75.569,83.805-119.225c0,0,33.066,63.772-4.718,105.07
	C357.61,168.08,316.309,140.932,316.309,140.932L316.309,140.932z"/>
<path fill="#FFFFFF" d="M296.235,136.213c0,0,80.244-34.223,90.881-96.794c0,0-4.719,66.133-76.727,112.149L296.235,136.213
	L296.235,136.213z"/>
</svg>
